<svg width="18" height="19" viewBox="0 0 18 19" fill="none" xmlns="http://www.w3.org/2000/svg">
<g clip-path="url(#clip0_81_982)">
<path d="M14.0549 10.061L16.0891 10.061C16.3699 10.061 16.5977 9.83335 16.5977 9.55247L16.5977 1.41568C16.5977 1.13483 16.37 0.907112 16.0891 0.907112L14.0549 0.907112C13.774 0.907112 13.5463 1.1348 13.5463 1.41568L13.5463 9.5525C13.5463 9.83335 13.774 10.061 14.0549 10.061Z" fill="white"/>
<path d="M1.35129 8.7129C1.44099 9.5018 2.17792 10.061 2.9719 10.061L6.93672 10.061C6.59978 10.6643 6.41892 12.3708 6.42694 13.0679C6.44024 14.2218 7.39582 15.1465 8.54976 15.1465L8.9694 15.1465C9.25048 15.1465 9.47797 14.919 9.47797 14.6379C9.47797 13.4619 9.93588 11.3393 10.7995 10.4756C11.3808 9.89434 11.8777 9.68371 12.5293 9.35806L12.5293 1.72727C11.5317 1.39475 10.265 0.906997 8.33442 0.906996L5.00773 0.906996C3.91158 0.906996 3.05788 1.9222 3.48264 2.99482C2.83551 3.17111 2.35827 3.76461 2.35827 4.46686C2.35827 4.66504 2.39651 4.85473 2.46554 5.02906C1.37501 5.32618 0.973606 6.67271 1.7305 7.51819C1.45243 7.82885 1.29908 8.25377 1.35129 8.7129Z" fill="white"/>
</g>
<defs>
<clipPath id="clip0_81_982">
<rect width="17.3245" height="17.3245" fill="white" transform="translate(17.6309 18.2314) rotate(-180)"/>
</clipPath>
</defs>
</svg>
