<svg width="18" height="18" viewBox="0 0 18 18" fill="none" xmlns="http://www.w3.org/2000/svg">
<g clip-path="url(#clip0_81_991)">
<path d="M3.81624 8.16602H1.782C1.50116 8.16602 1.27344 8.3937 1.27344 8.67458V16.8114C1.27344 17.0922 1.50113 17.3199 1.782 17.3199H3.8162C4.09705 17.3199 4.32477 17.0923 4.32477 16.8114V8.67455C4.32477 8.3937 4.09711 8.16602 3.81624 8.16602Z" fill="white"/>
<path d="M16.5198 9.51415C16.4301 8.72525 15.6932 8.1661 14.8992 8.1661H10.9344C11.2713 7.56275 11.4522 5.85626 11.4442 5.15916C11.4309 4.00526 10.4753 3.08057 9.32134 3.08057H8.90169C8.62061 3.08057 8.39313 3.30802 8.39313 3.58913C8.39313 4.76513 7.93521 6.88778 7.0716 7.75143C6.49032 8.33271 5.99339 8.54334 5.3418 8.86899V16.4998C6.33941 16.8323 7.60605 17.3201 9.53667 17.3201H12.8634C13.9595 17.3201 14.8132 16.3049 14.3885 15.2322C15.0356 15.0559 15.5128 14.4624 15.5128 13.7602C15.5128 13.562 15.4746 13.3723 15.4056 13.198C16.4961 12.9009 16.8975 11.5543 16.1406 10.7089C16.4187 10.3982 16.572 9.97328 16.5198 9.51415Z" fill="white"/>
</g>
<defs>
<clipPath id="clip0_81_991">
<rect width="17.3245" height="17.3245" fill="white" transform="translate(0.240234 -0.00439453)"/>
</clipPath>
</defs>
</svg>
